<svg width="50" height="50" viewBox="0 0 50 50" fill="none" xmlns="http://www.w3.org/2000/svg">
<path d="M25 2C12.318 2 2 12.318 2 25C2 37.6821 12.318 48.0001 25 48.0001C37.6821 48.0001 48.0001 37.6821 48.0001 25C48.0001 12.318 37.682 2 25 2Z" stroke="#FF9800" stroke-width="4"/>
<path d="M17.4303 16.548L15.3863 16.156V14.196H19.7543C20.3703 14.196 21.2009 14.1587 22.2463 14.084C22.4889 14.0653 22.8529 14.0467 23.3383 14.028C23.8423 14.0093 24.2903 14 24.6823 14C28.0796 14 30.6369 14.8493 32.3543 16.548C34.0716 18.2467 34.9303 20.6827 34.9303 23.856C34.9303 26.04 34.5103 27.9907 33.6703 29.708C32.8303 31.4253 31.6263 32.7787 30.0583 33.768C28.4903 34.7387 26.6423 35.224 24.5143 35.224C23.9356 35.224 23.0676 35.1867 21.9103 35.112C20.8276 35.0373 20.1276 35 19.8103 35H15.2743V33.152L17.4303 32.844V16.548ZM22.1623 32.928C22.8156 33.1333 23.5623 33.2173 24.4023 33.18C26.0823 33.1613 27.3796 32.452 28.2943 31.052C29.2276 29.6333 29.6943 27.468 29.6943 24.556C29.6943 21.868 29.2369 19.768 28.3223 18.256C27.4263 16.7253 26.0076 15.96 24.0663 15.96C23.6183 15.96 23.2169 15.988 22.8623 16.044C22.5076 16.1 22.2743 16.1373 22.1623 16.156V32.928Z" fill="#FF9800"/>
</svg>
