<svg width="46" height="46" viewBox="0 0 46 46" fill="none" xmlns="http://www.w3.org/2000/svg">
<path d="M31.8462 31.4198V37.375C31.8462 39.2044 30.3582 40.6923 28.5288 40.6923H8.625C6.79562 40.6923 5.30769 39.2044 5.30769 37.375V17.4712C5.30769 15.6418 6.79562 14.1539 8.625 14.1539H14.6917L20.0012 8.84619H8.625C3.86046 8.84619 0 12.7067 0 17.4712V37.375C0 42.1396 3.86046 46 8.625 46H28.5288C33.2934 46 37.1538 42.1396 37.1538 37.375V26.1103L31.8462 31.4198Z" fill="#e20026"/>
<g clip-path="url(#clip0)">
<path d="M32.0833 6.20111L39.5693 13.687L20.6203 32.636L13.1386 25.1501L32.0833 6.20111ZM45.2497 4.39569L41.9112 1.05725C40.621 -0.232949 38.526 -0.232949 37.2315 1.05725L34.0336 4.25514L41.5195 11.7411L45.2497 8.01092C46.2504 7.01017 46.2504 5.39637 45.2497 4.39569ZM9.22103 35.6721C9.08479 36.2853 9.63836 36.8346 10.2516 36.6855L18.5934 34.663L11.1117 27.1771L9.22103 35.6721Z" fill="#e20026"/>
</g>
<defs>
<clipPath id="clip0">
<rect width="36.8" height="36.8" fill="white" transform="translate(9.20007)"/>
</clipPath>
</defs>
</svg>
