<svg width="46" height="46" viewBox="0 0 46 46" fill="none" xmlns="http://www.w3.org/2000/svg">
<path d="M22.9999 0C10.3177 0 0 10.3179 0 23C0 35.6821 10.3177 46 22.9999 46C35.6821 46 46 35.6821 46 23C46 10.3179 35.6821 0 22.9999 0ZM33.5455 28.5396C34.9276 29.9217 34.9279 32.163 33.5455 33.5453C32.8543 34.2365 31.9484 34.582 31.0427 34.582C30.1368 34.582 29.2309 34.2363 28.5397 33.5453L22.9996 28.0055L17.46 33.5453C16.7689 34.2365 15.8627 34.582 14.957 34.582C14.0509 34.582 13.1452 34.2365 12.4542 33.5453C11.0719 32.1632 11.0719 29.9219 12.4542 28.5396L17.9941 22.9998L12.4542 17.46C11.0719 16.0778 11.0719 13.8365 12.4542 12.4542C13.8364 11.0721 16.0777 11.0721 17.46 12.4542L22.9996 17.994L28.5397 12.4542C29.9218 11.0718 32.1632 11.0718 33.5455 12.4542C34.9279 13.8363 34.9276 16.0776 33.5455 17.46L28.0055 22.9998L33.5455 28.5396Z" fill="#1d1d1d"/>
</svg>
