<svg width="46" height="46" viewBox="0 0 46 46" fill="none" xmlns="http://www.w3.org/2000/svg">
<path d="M46 26.2858C46 27.1756 45.6744 27.9466 45.024 28.5959C44.373 29.2458 43.6032 29.572 42.7139 29.572H29.5709V42.7138C29.5709 43.6036 29.2449 44.3739 28.5949 45.0252C27.9452 45.6749 27.1749 46 26.2848 46H19.7138C18.824 46 18.0539 45.6749 17.4037 45.0252C16.7533 44.3741 16.428 43.6037 16.428 42.7138V29.572H3.28542C2.39569 29.572 1.6259 29.246 0.975323 28.5959C0.325108 27.9468 0 27.1757 0 26.2858V19.714C0 18.8243 0.325288 18.0541 0.975323 17.4039C1.62572 16.7535 2.39551 16.4282 3.28542 16.4282H16.4285V3.28546C16.4285 2.39554 16.7538 1.62591 17.4042 0.975332C18.0544 0.32511 18.8244 0 19.7143 0H26.286C27.1758 0 27.9463 0.32529 28.5961 0.975332C29.246 1.62573 29.5722 2.39554 29.5722 3.28546V16.4282H42.7139C43.6036 16.4282 44.3739 16.7535 45.024 17.4039C45.6744 18.0539 46 18.8241 46 19.714V26.2858Z" fill="#333333"/>
</svg>
