<svg width="45" height="46" viewBox="0 0 45 46" fill="none" xmlns="http://www.w3.org/2000/svg">
<g clip-path="url(#clip0)">
<path d="M41.9831 11.4549C39.9711 7.93123 37.2418 5.14133 33.7947 3.08465C30.3469 1.02808 26.5832 0 22.5007 0C18.4185 0 14.6537 1.02808 11.2066 3.08465C7.75922 5.14102 5.02997 7.93091 3.0179 11.4549C1.00573 14.979 0 18.8275 0 23.0001C0 27.1728 1.00604 31.0207 3.01759 34.545C5.02956 38.0687 7.75881 40.8586 11.2062 42.9155C14.6537 44.9719 18.4182 46.0001 22.5003 46.0001C26.5823 46.0001 30.3472 44.9719 33.7946 42.9155C37.2417 40.8593 39.9708 38.0687 41.9827 34.545C43.9943 31.021 44.9999 27.1726 44.9999 23.0001C45 18.8271 43.9943 14.9785 41.9831 11.4549ZM35.6257 24.9167C35.6257 25.4357 35.4399 25.8855 35.0687 26.2643C34.6973 26.6434 34.258 26.8337 33.7504 26.8337H26.2502V34.4998C26.2502 35.0188 26.0642 35.4682 25.6932 35.8481C25.3225 36.2271 24.8829 36.4168 24.3749 36.4168H20.6251C20.1173 36.4168 19.6778 36.2271 19.3068 35.8481C18.9356 35.4683 18.75 35.0189 18.75 34.4998V26.8337H11.25C10.7422 26.8337 10.3029 26.6435 9.93168 26.2643C9.56063 25.8856 9.3751 25.4358 9.3751 24.9167V21.0831C9.3751 20.5641 9.56073 20.1148 9.93168 19.7355C10.3028 19.3561 10.7421 19.1663 11.25 19.1663H18.7503V11.4997C18.7503 10.9805 18.9359 10.5316 19.3071 10.1521C19.6781 9.77277 20.1175 9.58312 20.6254 9.58312H24.3756C24.8834 9.58312 25.3231 9.77287 25.6939 10.1521C26.0648 10.5315 26.2509 10.9805 26.2509 11.4997V19.1663H33.7504C34.2582 19.1663 34.6978 19.3561 35.0687 19.7355C35.4399 20.1147 35.6257 20.564 35.6257 21.0831V24.9167Z" fill="#999999"/>
</g>
<defs>
<clipPath id="clip0">
<rect width="45" height="46" fill="white"/>
</clipPath>
</defs>
</svg>
