<svg width="46" height="46" viewBox="0 0 46 46" fill="none" xmlns="http://www.w3.org/2000/svg">
<g clip-path="url(#clip0)">
<path d="M23 0C10.318 0 0 10.318 0 23C0 35.6821 10.318 46.0001 23 46.0001C35.6821 46.0001 46.0001 35.6821 46.0001 23C46.0001 10.318 35.682 0 23 0ZM24.4961 36.6465C23.4034 36.8287 21.2291 37.2837 20.125 37.3751C19.1904 37.4525 18.3085 36.9175 17.7709 36.1495C17.2318 35.3817 17.1027 34.399 17.4227 33.5174L21.7703 21.5626H17.25C17.2461 19.0715 19.1146 17.2399 21.5044 16.537C22.6448 16.2014 24.7696 15.7422 25.875 15.8126C26.5372 15.8547 27.6915 16.2702 28.2291 17.0382C28.7682 17.806 28.8973 18.7887 28.5773 19.6703L24.2297 31.6251H28.7486C28.7495 34.1133 26.9507 36.2375 24.4961 36.6465ZM25.875 14.375C24.2871 14.375 23 13.0877 23 11.5C23 9.91215 24.2871 8.62499 25.875 8.62499C27.4628 8.62499 28.75 9.91215 28.75 11.5C28.75 13.0878 27.4629 14.375 25.875 14.375Z" fill="#3B71D8"/>
</g>
<defs>
<clipPath id="clip0">
<rect width="46" height="46" fill="white"/>
</clipPath>
</defs>
</svg>
