<svg width="50" height="50" viewBox="0 0 50 50" fill="none" xmlns="http://www.w3.org/2000/svg">
<path d="M25 2C12.318 2 2 12.318 2 25C2 37.6821 12.318 48.0001 25 48.0001C37.682 48.0001 48 37.6821 48 25C48 12.318 37.6819 2 25 2Z" stroke="#3B71D8" stroke-width="4"/>
<path d="M14.4284 16.548L11.4604 16.156V14.196H20.9804L23.9484 25.9L24.6204 29.008L25.1804 25.9L28.1204 14.196H37.5844V16.156L34.5324 16.548L36.7724 32.844L38.9284 33.152V35H29.4924V33.152L31.8724 32.844L30.6964 20.776L30.1924 15.848L29.2124 20.328L25.5444 34.188H21.8764L17.9564 20.72L16.6684 15.82L16.3324 20.776L15.2964 32.844L18.1524 33.152V35H10.0604V33.152L12.3844 32.872L14.4284 16.548Z" fill="#3B71D8"/>
</svg>
