<svg width="46" height="46" viewBox="0 0 46 46" fill="none" xmlns="http://www.w3.org/2000/svg">
<path d="M6.30571 17.2774L7.08911 15.4201C4.40622 9.3562 4.58413 9.176 5.10513 8.65L8.53248 5.30146L8.87261 5.01487H9.26965C9.47905 5.01487 10.1041 5.01487 15.314 7.3779L17.2315 6.60478C19.7097 0.461426 19.9639 0.461426 20.6895 0.461426H25.5244C26.2493 0.461426 26.531 0.460615 28.8295 6.62668L30.7387 7.40183C34.2594 5.9152 36.3243 5.16263 36.8815 5.16263L37.3386 5.17682L41.0251 8.79127C41.5844 9.31727 41.7797 9.50275 38.9429 15.4728L39.7235 17.3236C46 19.7501 46 19.9854 46 20.7278V25.4685C46 26.2122 46 26.4743 39.7024 28.7301L38.922 30.5777C41.6045 36.6383 41.4243 36.8203 40.9031 37.3413L37.4758 40.6939L37.1348 40.987H36.7359C36.5297 40.987 35.9123 40.987 30.6951 38.6191L28.7811 39.3975C26.3024 45.54 26.0479 45.5385 25.3206 45.5385H20.4849C19.7454 45.5385 19.4832 45.5385 17.1778 39.3756L15.2589 38.5996C11.7422 40.0866 9.68209 40.8416 9.12838 40.8416L8.66821 40.8287L4.95345 37.1921C4.42501 36.6587 4.23994 36.4744 7.06086 30.529L6.2857 28.6767C0.000133514 26.2479 0.0001297 25.9929 0.0001297 25.2672V20.5318C0.000808716 19.7857 0.000808716 19.5252 6.30571 17.2774ZM23.0012 30.8862C27.435 30.8862 31.0453 27.3461 31.0453 22.9963C31.0453 18.6496 27.4349 15.1129 23.0012 15.1129C18.5698 15.1129 14.9672 18.6505 14.9672 22.9963C14.968 27.3461 18.5707 30.8862 23.0012 30.8862Z" fill="#999999"/>
</svg>
