<svg width="46" height="46" viewBox="0 0 46 46" fill="none" xmlns="http://www.w3.org/2000/svg">
<path fill-rule="evenodd" clip-rule="evenodd" d="M0 23C0 10.3179 10.3177 0 22.9999 0C35.6821 0 46 10.3179 46 23C46 35.6821 35.6821 46 22.9999 46C10.3177 46 0 35.6821 0 23ZM20 10.697C20 9.03128 21.5076 8 23.5 8C25.4438 8 26.9998 9.07082 27 10.697V25.9754C27 27.5998 25.4438 28.6707 23.5 28.6707C21.5074 28.6707 20 27.6429 20 25.9754V10.697ZM20.0278 35.558C20.0278 33.6579 21.5857 32.1127 23.5 32.1127C25.4143 32.1127 26.9702 33.6577 26.9704 35.558C26.9704 37.4548 25.4143 39 23.5 39C21.5857 39 20.0278 37.4548 20.0278 35.558Z" fill="#FF9800"/>
</svg>
