<svg width="46" height="46" viewBox="0 0 46 46" fill="none" xmlns="http://www.w3.org/2000/svg">
<path d="M45.1564 41.0837L31.3028 27.2305C33.3081 24.4116 34.4994 20.9732 34.4994 17.25C34.4994 7.72371 26.776 0 17.2498 0C7.72339 0 0 7.72371 0 17.25C0 26.7763 7.72339 34.5 17.2498 34.5C20.9727 34.5 24.4108 33.3084 27.2301 31.3031L41.0837 45.1562C41.6461 45.7183 42.3835 46 43.1208 46C43.8583 46 44.5956 45.7183 45.1565 45.1562C46.2812 44.0321 46.2812 42.2078 45.1564 41.0837ZM26.6184 23.897L25.4878 25.4868L23.8975 26.6182C21.9369 28.0125 19.6381 28.75 17.2498 28.75C10.9085 28.75 5.74994 23.5908 5.74994 17.25C5.74994 10.9092 10.9085 5.75 17.2498 5.75C23.591 5.75 28.7496 10.9092 28.7496 17.25C28.7509 19.6377 28.0136 21.9362 26.6184 23.897Z" fill="#e20026"/>
</svg>
