<svg width="43" height="46" viewBox="0 0 43 46" fill="none" xmlns="http://www.w3.org/2000/svg">
<path d="M39.5445 5.56547H36.0478V3.17882C36.0478 1.42322 34.6245 0 32.869 0H32.7418C30.9862 0 29.563 1.42322 29.563 3.17882V5.56547H13.1603V3.17882C13.1603 1.42322 11.7371 0 9.98148 0H9.85433C8.09873 0 6.67551 1.42322 6.67551 3.17882V5.56547H3.17882C1.42322 5.56547 0 6.98869 0 8.74429V42.8212C0 44.577 1.42322 46 3.17882 46H39.5445C41.3001 46 42.7233 44.577 42.7233 42.8212V8.74429C42.7233 6.98869 41.2999 5.56547 39.5445 5.56547ZM37.3829 40.9775H5.34041V15.1655H37.3829V40.9775Z" fill="#333333"/>
<path d="M9.69556 26.8462H15.2264C15.5073 26.8462 15.7351 26.6185 15.7351 26.3376V20.8067C15.7351 20.5258 15.5073 20.2981 15.2264 20.2981H9.69556C9.41468 20.2981 9.18695 20.5258 9.18695 20.8067V26.3376C9.18695 26.6185 9.41468 26.8462 9.69556 26.8462Z" fill="#333333"/>
<path d="M18.5962 26.8462H24.1271C24.408 26.8462 24.6357 26.6185 24.6357 26.3376V20.8067C24.6357 20.5258 24.408 20.2981 24.1271 20.2981H18.5962C18.3153 20.2981 18.0876 20.5258 18.0876 20.8067V26.3376C18.0876 26.6185 18.3153 26.8462 18.5962 26.8462Z" fill="#333333"/>
<path d="M27.4969 26.8462H33.0278C33.3086 26.8462 33.5364 26.6185 33.5364 26.3376V20.8067C33.5364 20.5258 33.3086 20.2981 33.0278 20.2981H27.4969C27.216 20.2981 26.9883 20.5258 26.9883 20.8067V26.3376C26.9883 26.6185 27.216 26.8462 27.4969 26.8462Z" fill="#333333"/>
<path d="M9.69556 35.7468H15.2264C15.5073 35.7468 15.7351 35.5191 15.7351 35.2382V29.7073C15.7351 29.4265 15.5073 29.1987 15.2264 29.1987H9.69556C9.41468 29.1987 9.18695 29.4265 9.18695 29.7073V35.2382C9.18695 35.5191 9.41468 35.7468 9.69556 35.7468Z" fill="#333333"/>
<path d="M18.5962 35.7468H24.1271C24.408 35.7468 24.6357 35.5191 24.6357 35.2382V29.7073C24.6357 29.4265 24.408 29.1987 24.1271 29.1987H18.5962C18.3153 29.1987 18.0876 29.4265 18.0876 29.7073V35.2382C18.0876 35.5191 18.3153 35.7468 18.5962 35.7468Z" fill="#333333"/>
<path d="M27.4969 35.7468H33.0278C33.3086 35.7468 33.5364 35.5191 33.5364 35.2382V29.7073C33.5364 29.4265 33.3086 29.1987 33.0278 29.1987H27.4969C27.216 29.1987 26.9883 29.4265 26.9883 29.7073V35.2382C26.9883 35.5191 27.216 35.7468 27.4969 35.7468Z" fill="#333333"/>
</svg>
