<svg width="46" height="46" viewBox="0 0 46 46" fill="none" xmlns="http://www.w3.org/2000/svg">
<g clip-path="url(#clip0)">
<path d="M39.0703 29.3158V39.8238H6.92797V29.3158H0.750244V42.9127C0.750244 44.6174 2.13126 46 3.84371 46H42.1545C43.8655 46 45.248 44.619 45.248 42.9127V29.3158H39.0703Z" fill="#999999"/>
<path d="M22.4336 28.2739L13.589 17.5864C13.589 17.5864 12.2433 16.3159 13.7026 16.3159C15.1618 16.3159 18.6865 16.3159 18.6865 16.3159C18.6865 16.3159 18.6865 15.4612 18.6865 14.1431C18.6865 10.3852 18.6865 3.54613 18.6865 0.758023C18.6865 0.758023 18.4885 0 19.6302 0C20.781 0 25.8217 0 26.6457 0C27.4682 0 27.4498 0.638335 27.4498 0.638335C27.4498 3.34205 27.4498 10.4174 27.4498 14.0526C27.4498 15.231 27.4498 15.9952 27.4498 15.9952C27.4498 15.9952 30.2762 15.9952 32.0501 15.9952C33.8208 15.9952 32.4874 17.3256 32.4874 17.3256C32.4874 17.3256 24.9624 27.3149 23.9128 28.3629C23.1579 29.1225 22.4336 28.2739 22.4336 28.2739Z" fill="#999999"/>
</g>
<defs>
<clipPath id="clip0">
<rect width="46" height="46" fill="white"/>
</clipPath>
</defs>
</svg>
