<svg width="12" height="46" viewBox="0 0 12 46" xmlns="http://www.w3.org/2000/svg">
<path d="M0 5.75007C0 2.57609 2.68798 -1.66893e-06 5.99994 -1.66893e-06C9.31191 -1.66893e-06 12 2.57609 12 5.75007C12 8.92693 9.31503 11.5001 5.99994 11.5001C2.68485 11.5001 0 8.92693 0 5.75007ZM12 40.25C12 43.4269 9.31503 46 5.99994 46C2.68485 46 0 43.4269 0 40.25C0 37.0761 2.68798 34.5001 5.99994 34.5001C9.31191 34.5001 12 37.0761 12 40.25ZM5.99994 28.75C2.68496 28.75 0 26.1769 0 23.0001C0 19.8261 2.68798 17.25 5.99994 17.25C9.31191 17.25 12 19.8261 12 23.0001C12 26.1769 9.31493 28.75 5.99994 28.75Z" fill="#e20026"/>
</svg>
