<svg width="46" height="46" viewBox="0 0 46 46" fill="none" xmlns="http://www.w3.org/2000/svg">
<path d="M23.0005 0C10.3177 0 0 10.3177 0 22.9995C0 35.6823 10.3177 46 23.0005 46C35.6823 46 46 35.6823 46 22.9995C46 10.3177 35.6823 0 23.0005 0ZM36.6558 18.6682L20.1786 35.1454C19.4869 35.837 18.5798 36.1833 17.6735 36.1833C16.7673 36.1833 15.8611 35.8379 15.1694 35.1454L8.87268 28.8487C7.48938 27.4663 7.48938 25.2237 8.87268 23.8404C10.2551 22.4571 12.4976 22.4571 13.881 23.8404L17.6735 27.633L31.6475 13.6599C33.0299 12.2766 35.2725 12.2766 36.6558 13.6599C38.0391 15.0423 38.0391 17.2849 36.6558 18.6682Z" fill="#008F59"/>
</svg>
