<svg width="46" height="46" viewBox="0 0 46 46" fill="none" xmlns="http://www.w3.org/2000/svg">
<g clip-path="url(#clip0)">
<path d="M0.65979 7.84262C0.65979 11.2361 2.77127 14.1393 5.78766 15.2328V39.4393C5.78766 40.0807 6.46635 40.7971 7.10733 40.7971H11.2926H16.8729H18.6073L16.8352 42.2299C16.3827 42.6823 16.1188 43.0594 16.1188 43.7004C16.1188 44.341 16.3827 44.8692 16.8352 45.3217C17.2877 45.7741 17.8909 46.0004 18.5319 46.0004C19.1729 46.0004 19.7762 45.7368 20.2286 45.284C26.1483 39.3647 26.1483 39.327 26.1483 39.327C26.6012 38.8364 26.8274 38.1958 26.7897 37.5168C26.7516 36.9135 26.4877 36.3479 25.9975 35.8954C25.9975 35.8574 20.2286 30.1266 20.2286 30.1266C19.7762 29.6741 19.1729 29.4102 18.5319 29.4102C17.8909 29.4102 17.2877 29.6741 16.8352 30.1266C16.3827 30.5787 16.1188 31.1823 16.1188 31.8233C16.1188 32.4639 16.3827 33.143 16.8352 33.5951L18.6073 35.4803H16.8729H12.6122C11.9713 35.4803 11.4434 34.9905 11.4434 34.3115V15.082C14.0827 13.9508 16.3827 11.1229 16.3827 7.80492C16.3827 3.46885 12.8762 0 8.54012 0C4.24176 0 0.65979 3.50656 0.65979 7.84262ZM8.54012 4.78852C10.2368 4.78852 11.5942 6.1459 11.5942 7.84262C11.5942 9.53934 10.2368 10.8967 8.54012 10.8967C6.8434 10.8967 5.48602 9.53934 5.48602 7.84262C5.48602 6.1459 6.8434 4.78852 8.54012 4.78852Z" fill="#999999"/>
<path d="M45.3402 38.1565C45.3402 34.7631 43.1156 31.8598 40.0992 30.766V6.55982C40.0992 5.91883 39.6471 5.31555 39.0061 5.31555H34.7831H29.2028H27.468L29.2405 3.84506C29.6926 3.3926 29.9565 2.97785 29.9565 2.33687C29.9565 1.69588 29.6926 1.16801 29.2405 0.715554C28.7877 0.263095 28.1844 0.0368652 27.5438 0.0368652C26.9024 0.0368652 26.2992 0.3008 25.8471 0.753259C19.9647 6.63523 19.9647 6.63523 19.9647 6.63523C19.5123 7.12539 19.2861 7.76637 19.3238 8.44506C19.3615 9.04834 19.6254 9.61392 20.1156 10.0664C20.1533 10.1041 25.8844 15.8352 25.8844 15.8352C26.3365 16.2877 26.9402 16.5516 27.5811 16.5516C28.2217 16.5516 28.8254 16.3254 29.2779 15.8729C29.7299 15.4205 29.9942 14.8172 29.9942 14.1762C29.9942 13.5352 29.7299 12.8942 29.2779 12.4418L27.4676 10.5942H29.2024H33.5008C34.1422 10.5942 34.4434 11.009 34.4434 11.65V30.8795C31.8041 32.0106 29.6176 34.8385 29.6176 38.1565C29.6176 42.4926 33.1238 45.9615 37.4598 45.9615C41.7582 45.9615 45.3402 42.4549 45.3402 38.1565ZM37.5729 41.211C35.8762 41.211 34.5188 39.8533 34.5188 38.1565C34.5188 36.4598 35.8762 35.1021 37.5729 35.1021C39.2697 35.1021 40.627 36.4598 40.627 38.1565C40.627 39.8533 39.2697 41.211 37.5729 41.211Z" fill="#999999"/>
</g>
<defs>
<clipPath id="clip0">
<rect width="46" height="46" fill="white"/>
</clipPath>
</defs>
</svg>
