<svg width="50" height="50" viewBox="0 0 50 50" fill="none" xmlns="http://www.w3.org/2000/svg">
<path d="M47 42.3999C48.0173 43.4416 48.0173 45.1301 47 46.1713C46.4911 46.6921 45.8239 46.9525 45.1572 46.9525C44.4905 46.9525 43.8233 46.6921 43.3144 46.1718L38.1659 40.7082C36.4107 41.7817 34.3598 42.3999 32.1699 42.3999C25.7046 42.3999 20.4445 37.0166 20.4445 30.3999C20.4445 23.7832 25.7046 18.3999 32.1699 18.3999C38.6352 18.3999 43.8953 23.7832 43.8953 30.3999C43.8953 32.8483 43.1747 35.127 41.9396 37.0275L47 42.3999ZM32.1699 37.0666C35.7618 37.0666 38.684 34.0759 38.684 30.3999C38.684 26.7239 35.7618 23.7332 32.1699 23.7332C28.578 23.7332 25.6558 26.7239 25.6558 30.3999C25.6558 34.0759 28.578 37.0666 32.1699 37.0666Z" fill="#333333"/>
<path d="M34.7662 0H6.97454C3.59839 0 0 2.8152 0 6.27575V35.6354C0 39.0959 3.59839 41.9111 6.97454 41.9111H14.9189C15.7644 41.9111 16.482 40.0789 16.482 39.2123C16.482 38.3457 15.7644 37.2915 14.9189 37.2915H7.56825C5.88033 37.2915 4.50691 35.8838 4.50691 34.1537V7.75746C4.50691 6.02734 5.88033 4.61958 7.56825 4.61958H33.3206C35.0086 4.61958 36.382 6.02734 36.382 7.75746V16.146C36.382 17.0126 37.6609 17.7149 38.5064 17.7149C39.3518 17.7149 40.8889 17.0126 40.8889 16.146V7.1489C40.8889 3.68835 38.1424 0 34.7662 0Z" fill="#333333"/>
<path d="M31.79 12.855H23.6144H16.4388C15.5933 12.855 14.9081 11.5441 14.9081 10.6775C14.9081 9.20235 15.5933 8.5 16.4388 8.5H31.79C32.6354 8.5 33.3206 9.20235 33.3206 10.6775C33.3206 11.5441 32.6354 12.855 31.79 12.855Z" fill="#333333"/>
<path d="M9.31607 8.5H12.0342C12.8796 8.5 13.5648 9.8109 13.5648 10.6775C13.5648 11.5441 12.8796 12.855 12.0342 12.855H9.31607C8.47062 12.855 7.7854 11.5441 7.7854 10.6775C7.7854 9.8109 8.47062 8.5 9.31607 8.5Z" fill="#333333"/>
<path d="M21.4761 22.6117H20.6458H16.4388C15.5933 22.6117 14.9081 21.3008 14.9081 20.4342C14.9081 18.9591 15.5933 18.2567 16.4388 18.2567H21.4761C22.3215 18.2567 23.0067 18.9591 23.0067 20.4342C23.0067 21.3008 22.3215 22.6117 21.4761 22.6117Z" fill="#333333"/>
<path d="M9.37912 18.2567H12.0972C12.9427 18.2567 13.6279 19.5676 13.6279 20.4342C13.6279 21.3008 12.9427 22.6117 12.0972 22.6117H10.7382H9.37912C8.53366 22.6117 7.84845 21.3008 7.84845 20.4342C7.84845 19.5676 8.53366 18.2567 9.37912 18.2567Z" fill="#333333"/>
<path d="M18.1012 32.7323H17.2709H16.4388C15.5933 32.7323 14.9081 31.4214 14.9081 30.5548C14.9081 29.0797 15.5933 28.3773 16.4388 28.3773H18.1012C18.9467 28.3773 19.6319 29.0797 19.6319 30.5548C19.6319 31.4214 18.9467 32.7323 18.1012 32.7323Z" fill="#333333"/>
<path d="M9.37912 28.3773H12.0972C12.9427 28.3773 13.6279 29.6882 13.6279 30.5548C13.6279 31.4214 12.9427 32.7323 12.0972 32.7323H9.37912C8.53366 32.7323 7.84845 31.4214 7.84845 30.5548C7.84845 29.6882 8.53366 28.3773 9.37912 28.3773Z" fill="#333333"/>
</svg>
