<svg width="45" height="46" viewBox="0 0 45 46" fill="none" xmlns="http://www.w3.org/2000/svg">
<g clip-path="url(#clip0)">
<path d="M31.1538 31.4198V37.375C31.1538 39.2044 29.6983 40.6923 27.9087 40.6923H8.4375C6.64788 40.6923 5.19231 39.2044 5.19231 37.375V17.4712C5.19231 15.6418 6.64788 14.1539 8.4375 14.1539H14.3723L19.5663 8.84619H8.4375C3.77654 8.84619 0 12.7067 0 17.4712V37.375C0 42.1396 3.77654 46 8.4375 46H27.9087C32.5696 46 36.3462 42.1396 36.3462 37.375V26.1103L31.1538 31.4198Z" fill="#999999"/>
<path d="M40.7405 8.06799e-05L26.347 1.35986C23.5008 1.36295 23.6985 2.14661 25.2001 3.68L30.0594 8.64732L12.6001 26.7319C10.8721 28.4967 10.8736 31.3568 12.6001 33.12L14.25 34.6207C15.9764 36.3808 18.7712 36.3824 20.4977 34.6191L37.957 16.533L42.7257 21.4078C44.3873 23.1047 45 23.1494 45 20.24V5.27438C44.9985 -0.0276966 45.9363 -0.00146197 40.7405 8.06799e-05Z" fill="#999999"/>
</g>
<defs>
<clipPath id="clip0">
<rect width="45" height="46" fill="white"/>
</clipPath>
</defs>
</svg>