<svg width="39" height="46" viewBox="0 0 39 46" fill="none" xmlns="http://www.w3.org/2000/svg">
<path d="M16.2529 2.77673H22.7709V4.07034H25.1248V2.59564C25.1251 1.16446 24.1384 0 22.9256 0H16.0981C14.8853 0 13.8987 1.16446 13.8987 2.59564V4.07034H16.2529V2.77673Z" fill="#e20026"/>
<path d="M30.561 15.0713H8.46284C7.85734 15.0713 7.38067 15.6805 7.42946 16.3926L9.27693 43.3373C9.37988 44.8415 10.4436 46 11.7216 46H27.302C28.58 46 29.6437 44.8415 29.7466 43.337L31.5941 16.3926C31.6432 15.6805 31.1665 15.0713 30.561 15.0713V15.0713ZM13.8136 43.1261C13.7889 43.1278 13.7642 43.1289 13.7398 43.1289C13.1227 43.1289 12.6047 42.5621 12.5663 41.8258L11.4086 19.7056C11.3687 18.9402 11.8623 18.2814 12.511 18.2344C13.1575 18.1881 13.7184 18.7689 13.7583 19.5347L14.9157 41.6549C14.9559 42.4203 14.4623 43.0787 13.8136 43.1261V43.1261ZM20.7021 41.7405C20.7021 42.507 20.1752 43.1285 19.525 43.1285C18.8749 43.1285 18.3479 42.507 18.3479 41.7405V19.62C18.3479 18.8531 18.8749 18.2316 19.525 18.2316C20.1749 18.2316 20.7021 18.8531 20.7021 19.62V41.7405ZM27.6153 19.7018L26.5099 41.8219C26.4733 42.5596 25.9544 43.1285 25.3361 43.1285C25.3129 43.1285 25.2894 43.1278 25.2659 43.1264C24.6169 43.0811 24.1218 42.4241 24.1602 41.6587L25.2653 19.5382C25.3034 18.7728 25.8586 18.1888 26.5093 18.2341C27.1583 18.279 27.6534 18.9363 27.6153 19.7018V19.7018Z" fill="#e20026"/>
<path d="M34.6314 10.787L33.8584 8.05374C33.6546 7.33324 33.0827 6.84717 32.4385 6.84717H6.58502C5.94113 6.84717 5.36895 7.33324 5.16543 8.05374L4.3924 10.787C4.24333 11.3141 4.43733 11.8517 4.79944 12.1199C4.94703 12.229 5.12169 12.2946 5.3136 12.2946H33.7102C33.9022 12.2946 34.0771 12.229 34.2244 12.1195C34.5865 11.8514 34.7805 11.3137 34.6314 10.787Z" fill="#e20026"/>
</svg>
